<svg width="8" height="12" viewBox="0 0 8 12" fill="none" xmlns="http://www.w3.org/2000/svg">
<path fill-rule="evenodd" clip-rule="evenodd" d="M3.6437 6.56515C4.80306 7.49263 6.22264 8.90484 7.17676 10.8131L5.69653 11.5532C4.88539 9.93088 3.65709 8.69519 2.60988 7.85744C2.08921 7.44091 1.62138 7.1292 1.28644 6.92309C1.1192 6.82018 0.985776 6.74401 0.896307 6.69465C0.851593 6.66998 0.817923 6.65205 0.79657 6.64085L0.773963 6.62911L0.770443 6.62731C0.770461 6.62732 0.77048 6.62733 0.770836 6.62666L0.770818 5.14813C0.770461 5.14746 0.770443 5.14747 0.770424 5.14748L0.773946 5.14568L0.796553 5.13395C0.817906 5.12275 0.851576 5.10481 0.896291 5.08014C0.98576 5.03077 1.11919 4.95461 1.28642 4.85169C1.62137 4.64557 2.0892 4.33384 2.60987 3.9173C3.65708 3.07952 4.88539 1.84381 5.69653 0.221466L7.17676 0.961555C6.22264 2.86984 4.80307 4.28207 3.6437 5.20957C3.31536 5.47226 3.00527 5.69814 2.72873 5.88738C3.00526 6.0766 3.31535 6.30248 3.6437 6.56515ZM0.769738 6.62696C0.769583 6.62688 0.76964 6.62691 0.769903 6.62704L0.769738 6.62696Z" fill="black"/>
</svg>
