<svg width="0" height="0" class="hidden">
  <symbol xmlns="http://www.w3.org/2000/svg" viewBox="0 0 24 25" id="home">
    <path d="M12.7087 2.76249C12.5109 2.5942 12.2597 2.50179 12 2.50179C11.7403 2.50179 11.4891 2.5942 11.2912 2.76249L2.76 10.0145C2.63921 10.1173 2.54221 10.2451 2.47573 10.3891C2.40925 10.533 2.37488 10.6898 2.375 10.8484V22.1875C2.375 22.3035 2.42109 22.4148 2.50314 22.4969C2.58519 22.5789 2.69647 22.625 2.8125 22.625H7.1875C7.30353 22.625 7.41481 22.5789 7.49686 22.4969C7.57891 22.4148 7.625 22.3035 7.625 22.1875V16.0625C7.625 15.4823 7.85547 14.9259 8.2657 14.5157C8.67594 14.1055 9.23234 13.875 9.8125 13.875H13.75C14.0373 13.875 14.3217 13.9316 14.5871 14.0415C14.8525 14.1514 15.0937 14.3126 15.2968 14.5157C15.4999 14.7188 15.6611 14.96 15.771 15.2254C15.8809 15.4908 15.9375 15.7752 15.9375 16.0625V22.1875C15.9375 22.3035 15.9836 22.4148 16.0656 22.4969C16.1477 22.5789 16.259 22.625 16.375 22.625H21.1875C21.3035 22.625 21.4148 22.5789 21.4969 22.4969C21.5789 22.4148 21.625 22.3035 21.625 22.1875V10.8475C21.625 10.689 21.5906 10.5325 21.5241 10.3887C21.4576 10.2448 21.3607 10.1172 21.24 10.0145L12.7087 2.76337V2.76249ZM10.1581 1.42987C10.6723 0.992773 11.3252 0.752777 12 0.752777C12.6748 0.752777 13.3277 0.992773 13.8419 1.42987L22.3731 8.68099C22.6871 8.94794 22.9394 9.27995 23.1124 9.65404C23.2854 10.0281 23.375 10.4353 23.375 10.8475V22.1875C23.375 22.7677 23.1445 23.3241 22.7343 23.7343C22.3241 24.1445 21.7677 24.375 21.1875 24.375H16.375C15.7948 24.375 15.2384 24.1445 14.8282 23.7343C14.418 23.3241 14.1875 22.7677 14.1875 22.1875V16.0625C14.1875 15.9465 14.1414 15.8352 14.0594 15.7531C13.9773 15.6711 13.866 15.625 13.75 15.625H9.8125C9.69647 15.625 9.58519 15.6711 9.50314 15.7531C9.42109 15.8352 9.375 15.9465 9.375 16.0625V22.1875C9.375 22.7677 9.14453 23.3241 8.7343 23.7343C8.32406 24.1445 7.76766 24.375 7.1875 24.375H2.8125C2.23234 24.375 1.67594 24.1445 1.2657 23.7343C0.855468 23.3241 0.625 22.7677 0.625 22.1875V10.8475C0.625023 10.4353 0.714634 10.0281 0.887626 9.65404C1.06062 9.27995 1.31286 8.94794 1.62687 8.68099L10.1581 1.42987Z"></path>
  </symbol>
  <symbol xmlns="http://www.w3.org/2000/svg" viewBox="0 0 16 16" id="journal">
    <path fill-rule="evenodd" d="M6 8V1h1v6.117L8.743 6.07a.5.5 0 0 1 .514 0L11 7.117V1h1v7a.5.5 0 0 1-.757.429L9 7.083 6.757 8.43A.5.5 0 0 1 6 8z"></path>
    <path d="M3 0h10a2 2 0 0 1 2 2v12a2 2 0 0 1-2 2H3a2 2 0 0 1-2-2v-1h1v1a1 1 0 0 0 1 1h10a1 1 0 0 0 1-1V2a1 1 0 0 0-1-1H3a1 1 0 0 0-1 1v1H1V2a2 2 0 0 1 2-2z"></path>
    <path d="M1 5v-.5a.5.5 0 0 1 1 0V5h.5a.5.5 0 0 1 0 1h-2a.5.5 0 0 1 0-1H1zm0 3v-.5a.5.5 0 0 1 1 0V8h.5a.5.5 0 0 1 0 1h-2a.5.5 0 0 1 0-1H1zm0 3v-.5a.5.5 0 0 1 1 0v.5h.5a.5.5 0 0 1 0 1h-2a.5.5 0 0 1 0-1H1z"></path>
  </symbol>
  <symbol xmlns="http://www.w3.org/2000/svg" viewBox="0 0 37 33" id="like">
    <path d="M35.7588 6.90901C35.1959 5.60573 34.3843 4.42471 33.3694 3.43206C32.3538 2.43645 31.1563 1.64525 29.8421 1.10149C28.4793 0.535411 27.0177 0.245657 25.5421 0.249053C23.4719 0.249053 21.4521 0.815947 19.6968 1.88675C19.2769 2.1429 18.8779 2.42425 18.5 2.73079C18.1221 2.42425 17.7231 2.1429 17.3032 1.88675C15.5479 0.815947 13.5281 0.249053 11.4579 0.249053C9.96719 0.249053 8.52266 0.5346 7.15791 1.10149C5.83935 1.64739 4.65098 2.43265 3.63057 3.43206C2.61434 4.42359 1.80255 5.60489 1.24121 6.90901C0.65752 8.26536 0.359375 9.70569 0.359375 11.188C0.359375 12.5864 0.644922 14.0435 1.21182 15.5258C1.68633 16.7646 2.3666 18.0495 3.23584 19.3471C4.61318 21.4005 6.50703 23.5421 8.85859 25.7131C12.7555 29.3118 16.6146 31.7978 16.7783 31.8986L17.7735 32.5368C18.2145 32.8182 18.7813 32.8182 19.2223 32.5368L20.2175 31.8986C20.3813 31.7936 24.2361 29.3118 28.1372 25.7131C30.4888 23.5421 32.3826 21.4005 33.76 19.3471C34.6292 18.0495 35.3137 16.7646 35.784 15.5258C36.3509 14.0435 36.6364 12.5864 36.6364 11.188C36.6406 9.70569 36.3425 8.26536 35.7588 6.90901ZM18.5 29.2153C18.5 29.2153 3.55078 19.6368 3.55078 11.188C3.55078 6.90901 7.09072 3.44046 11.4579 3.44046C14.5275 3.44046 17.1898 5.15374 18.5 7.65647C19.8102 5.15374 22.4725 3.44046 25.5421 3.44046C29.9093 3.44046 33.4492 6.90901 33.4492 11.188C33.4492 19.6368 18.5 29.2153 18.5 29.2153Z"></path>
    <path d="M25.5421 3.44043C22.4725 3.44043 19.8102 5.15371 18.5 7.65645C17.1898 5.15371 14.5275 3.44043 11.4579 3.44043C7.09072 3.44043 3.55078 6.90898 3.55078 11.188C3.55078 19.6368 18.5 29.2152 18.5 29.2152C18.5 29.2152 33.4492 19.6368 33.4492 11.188C33.4492 6.90898 29.9093 3.44043 25.5421 3.44043Z" fill-opacity="0.1"></path>
  </symbol>
  <symbol xmlns="http://www.w3.org/2000/svg" viewBox="0 0 24 26" id="settings">
    <path d="M14.4255 0.75C14.6108 0.750006 14.7912 0.808807 14.9409 0.917934C15.0906 1.02706 15.2018 1.18089 15.2585 1.35725L16.221 4.348C16.6253 4.54575 17.012 4.768 17.3813 5.01825L20.4543 4.35675C20.6354 4.31807 20.8242 4.33789 20.9934 4.41337C21.1626 4.48885 21.3035 4.61608 21.3958 4.77675L23.8213 8.975C23.9139 9.13557 23.9531 9.32141 23.9333 9.50572C23.9135 9.69003 23.8356 9.86328 23.711 10.0005L21.6023 12.328C21.633 12.7743 21.633 13.2222 21.6023 13.6685L23.711 15.9995C23.8356 16.1367 23.9135 16.31 23.9333 16.4943C23.9531 16.6786 23.9139 16.8644 23.8213 17.025L21.3958 21.225C21.3032 21.3853 21.1623 21.5122 20.9931 21.5874C20.8239 21.6625 20.6353 21.6821 20.4543 21.6432L17.3813 20.9818C17.0138 21.2302 16.6253 21.4543 16.2228 21.652L15.2585 24.6427C15.2018 24.8191 15.0906 24.9729 14.9409 25.0821C14.7912 25.1912 14.6108 25.25 14.4255 25.25H9.57451C9.38925 25.25 9.20879 25.1912 9.05909 25.0821C8.90939 24.9729 8.79819 24.8191 8.74151 24.6427L7.78076 21.6537C7.37759 21.4566 6.98872 21.2315 6.61701 20.98L3.54576 21.6432C3.36457 21.6819 3.17578 21.6621 3.00658 21.5866C2.83739 21.5112 2.69651 21.3839 2.60426 21.2233L0.178756 17.025C0.0861368 16.8644 0.046906 16.6786 0.0667207 16.4943C0.0865354 16.31 0.164372 16.1367 0.289006 15.9995L2.39776 13.6685C2.36721 13.2234 2.36721 12.7766 2.39776 12.3315L0.289006 10.0005C0.164372 9.86328 0.0865354 9.69003 0.0667207 9.50572C0.046906 9.32141 0.0861368 9.13557 0.178756 8.975L2.60426 4.775C2.69677 4.61465 2.83775 4.48778 3.00693 4.41263C3.1761 4.33747 3.36476 4.31791 3.54576 4.35675L6.61701 5.02C6.98801 4.76975 7.37651 4.544 7.78076 4.34625L8.74326 1.35725C8.79976 1.18145 8.91043 1.02804 9.05942 0.918962C9.20842 0.809887 9.3881 0.750745 9.57276 0.75H14.4238H14.4255ZM13.785 2.5H10.215L9.22101 5.59225L8.55076 5.9195C8.22126 6.08074 7.90319 6.26434 7.59876 6.469L6.97926 6.889L3.80126 6.203L2.01626 9.297L4.19501 11.7085L4.14251 12.4505C4.11736 12.8164 4.11736 13.1836 4.14251 13.5495L4.19501 14.2915L2.01276 16.703L3.79951 19.797L6.97751 19.1128L7.59701 19.531C7.90144 19.7357 8.21951 19.9193 8.54901 20.0805L9.21926 20.4077L10.215 23.5H13.7885L14.786 20.406L15.4545 20.0805C15.7836 19.9196 16.1012 19.736 16.4048 19.531L17.0225 19.1128L20.2023 19.797L21.9873 16.703L19.8068 14.2915L19.8593 13.5495C19.8845 13.183 19.8845 12.8152 19.8593 12.4487L19.8068 11.7067L21.989 9.297L20.2023 6.203L17.0225 6.8855L16.4048 6.469C16.1012 6.26393 15.7837 6.08031 15.4545 5.9195L14.786 5.594L13.7868 2.5H13.785ZM12 7.75C13.3924 7.75 14.7278 8.30312 15.7123 9.28769C16.6969 10.2723 17.25 11.6076 17.25 13C17.25 14.3924 16.6969 15.7277 15.7123 16.7123C14.7278 17.6969 13.3924 18.25 12 18.25C10.6076 18.25 9.27226 17.6969 8.2877 16.7123C7.30313 15.7277 6.75001 14.3924 6.75001 13C6.75001 11.6076 7.30313 10.2723 8.2877 9.28769C9.27226 8.30312 10.6076 7.75 12 7.75ZM12 9.5C11.0717 9.5 10.1815 9.86875 9.52513 10.5251C8.86876 11.1815 8.50001 12.0717 8.50001 13C8.50001 13.9283 8.86876 14.8185 9.52513 15.4749C10.1815 16.1313 11.0717 16.5 12 16.5C12.9283 16.5 13.8185 16.1313 14.4749 15.4749C15.1313 14.8185 15.5 13.9283 15.5 13C15.5 12.0717 15.1313 11.1815 14.4749 10.5251C13.8185 9.86875 12.9283 9.5 12 9.5Z"></path>
  </symbol>
  <symbol xmlns="http://www.w3.org/2000/svg" viewBox="0 0 25 22" id="log_out">
    <path d="M15.6667 16.8333V19.1667C15.6667 19.7855 15.4208 20.379 14.9832 20.8166C14.5457 21.2542 13.9522 21.5 13.3333 21.5H2.83333C2.21449 21.5 1.621 21.2542 1.18342 20.8166C0.745833 20.379 0.5 19.7855 0.5 19.1667V2.83333C0.5 2.21449 0.745833 1.621 1.18342 1.18342C1.621 0.745833 2.21449 0.5 2.83333 0.5H13.3333C13.9522 0.5 14.5457 0.745833 14.9832 1.18342C15.4208 1.621 15.6667 2.21449 15.6667 2.83333V5.16667H13.3333V2.83333H2.83333V19.1667H13.3333V16.8333H15.6667ZM18.5833 4.58333L16.9337 6.233L20.534 9.83333H8.66667V12.1667H20.534L16.9337 15.767L18.5833 17.4167L25 11L18.5833 4.58333Z"></path>
  </symbol>
  <symbol  xmlns="http://www.w3.org/2000/svg" viewBox="0 0 20 23" id="notification">
    <path d="M17.5 12.4395V10.5H16V12.75C16 12.9489 16.0791 13.1396 16.2197 13.2803L18.25 15.3105V16.5H1.75V15.3105L3.78025 13.2803C3.92091 13.1396 3.99996 12.9489 4 12.75V9.75C3.99791 8.6961 4.27398 7.6603 4.80032 6.74724C5.32665 5.83417 6.08463 5.07618 6.99767 4.5498C7.91072 4.02343 8.9465 3.74733 10.0004 3.74938C11.0543 3.75144 12.089 4.03157 13 4.5615V2.88525C12.2861 2.56914 11.5267 2.36766 10.75 2.28825V0.75H9.25V2.2875C7.40093 2.4757 5.68732 3.34284 4.44053 4.72124C3.19373 6.09964 2.50233 7.89138 2.5 9.75V12.4395L0.46975 14.4697C0.329088 14.6104 0.250042 14.8011 0.25 15V17.25C0.25 17.4489 0.329018 17.6397 0.46967 17.7803C0.610322 17.921 0.801088 18 1 18H6.25V18.75C6.25 19.7446 6.64509 20.6984 7.34835 21.4016C8.05161 22.1049 9.00544 22.5 10 22.5C10.9946 22.5 11.9484 22.1049 12.6517 21.4016C13.3549 20.6984 13.75 19.7446 13.75 18.75V18H19C19.1989 18 19.3897 17.921 19.5303 17.7803C19.671 17.6397 19.75 17.4489 19.75 17.25V15C19.75 14.8011 19.6709 14.6104 19.5303 14.4697L17.5 12.4395ZM12.25 18.75C12.25 19.3467 12.0129 19.919 11.591 20.341C11.169 20.7629 10.5967 21 10 21C9.40326 21 8.83097 20.7629 8.40901 20.341C7.98705 19.919 7.75 19.3467 7.75 18.75V18H12.25V18.75Z"></path>
  </symbol>
  <symbol xmlns="http://www.w3.org/2000/svg" viewBox="0 0 8 12" id="prev">
    <path fill-rule="evenodd" clip-rule="evenodd" d="M3.6437 6.56515C4.80306 7.49263 6.22264 8.90484 7.17676 10.8131L5.69653 11.5532C4.88539 9.93088 3.65709 8.69519 2.60988 7.85744C2.08921 7.44091 1.62138 7.1292 1.28644 6.92309C1.1192 6.82018 0.985776 6.74401 0.896307 6.69465C0.851593 6.66998 0.817923 6.65205 0.79657 6.64085L0.773963 6.62911L0.770443 6.62731C0.770461 6.62732 0.77048 6.62733 0.770836 6.62666L0.770818 5.14813C0.770461 5.14746 0.770443 5.14747 0.770424 5.14748L0.773946 5.14568L0.796553 5.13395C0.817906 5.12275 0.851576 5.10481 0.896291 5.08014C0.98576 5.03077 1.11919 4.95461 1.28642 4.85169C1.62137 4.64557 2.0892 4.33384 2.60987 3.9173C3.65708 3.07952 4.88539 1.84381 5.69653 0.221466L7.17676 0.961555C6.22264 2.86984 4.80307 4.28207 3.6437 5.20957C3.31536 5.47226 3.00527 5.69814 2.72873 5.88738C3.00526 6.0766 3.31535 6.30248 3.6437 6.56515ZM0.769738 6.62696C0.769583 6.62688 0.76964 6.62691 0.769903 6.62704L0.769738 6.62696Z"></path>
  </symbol>
  <symbol  xmlns="http://www.w3.org/2000/svg" viewBox="0 0 8 12" id="next">
    <path fill-rule="evenodd" clip-rule="evenodd" d="M4.13096 6.56515C2.9716 7.49263 1.55202 8.90484 0.597901 10.8131L2.07812 11.5532C2.88927 9.93088 4.11757 8.69519 5.16478 7.85744C5.68545 7.44091 6.15328 7.1292 6.48822 6.92309C6.65546 6.82018 6.78888 6.74401 6.87835 6.69465C6.92307 6.66998 6.95674 6.65205 6.97809 6.64085L7.0007 6.62911L7.00422 6.62731C7.0042 6.62732 7.00418 6.62733 7.00382 6.62666L7.00384 5.14813C7.0042 5.14746 7.00422 5.14747 7.00423 5.14748L7.00071 5.14568L6.97811 5.13395C6.95675 5.12275 6.92308 5.10481 6.87837 5.08014C6.7889 5.03077 6.65547 4.95461 6.48824 4.85169C6.15329 4.64557 5.68546 4.33384 5.16479 3.9173C4.11758 3.07952 2.88927 1.84381 2.07812 0.221466L0.5979 0.961555C1.55201 2.86984 2.97159 4.28207 4.13095 5.20957C4.4593 5.47226 4.76939 5.69814 5.04593 5.88738C4.76939 6.0766 4.45931 6.30248 4.13096 6.56515ZM7.00492 6.62696C7.00507 6.62688 7.00502 6.62691 7.00475 6.62704L7.00492 6.62696Z"></path>
  </symbol>
</svg>