<svg width="129" height="73" viewBox="0 0 129 73" fill="none" xmlns="http://www.w3.org/2000/svg">
<path d="M19.2 51V40.392H12V51H2.4V21H12V31.608H19.2V21H28.8V51H19.2ZM45.4747 26.28C53.1547 26.28 56.9948 28.92 56.9948 34.2V51H52.1948L49.4587 48.264C48.5308 49.352 47.2668 50.2 45.6667 50.808C44.0668 51.416 42.5468 51.72 41.1068 51.72C39.6988 51.72 38.5627 51.608 37.6987 51.384C36.8347 51.16 35.9867 50.776 35.1547 50.232C33.3307 49.08 32.4187 46.936 32.4187 43.8C32.4187 38.04 36.7707 35.16 45.4747 35.16H47.3948V33.432C46.3708 33.368 45.5228 33.336 44.8508 33.336C41.2348 33.336 38.1308 33.768 35.5387 34.632L34.3867 27.768C37.5867 26.776 41.2827 26.28 45.4747 26.28ZM42.1147 42.744V44.712H44.0828C45.4908 44.712 46.3868 44.552 46.7708 44.232C47.1868 43.912 47.3948 43.496 47.3948 42.984V40.728H45.4268C44.2747 40.728 43.4267 40.856 42.8828 41.112C42.3707 41.336 42.1147 41.88 42.1147 42.744ZM61.8131 27H66.6131L69.2531 29.688C71.1411 27.96 73.5091 26.824 76.3571 26.28L76.9331 35.352C76.1651 35.384 75.1571 35.576 73.9091 35.928C72.6931 36.28 71.8611 36.728 71.4131 37.272V51H61.8131V27ZM80.2931 51V28.2L89.8931 27V51H80.2931ZM80.8211 25.464C80.1171 24.92 79.7651 23.928 79.7651 22.488C79.7651 21.048 80.1171 20.04 80.8211 19.464C81.5571 18.888 82.9811 18.6 85.0931 18.6C87.2371 18.6 88.6611 18.888 89.3651 19.464C90.1011 20.04 90.4691 21.048 90.4691 22.488C90.4691 23.928 90.1011 24.92 89.3651 25.464C88.6611 26.008 87.2371 26.28 85.0931 26.28C82.9811 26.28 81.5571 26.008 80.8211 25.464ZM6.608 66.726C6.36533 67.1087 6.02467 67.44 5.586 67.72C5.14733 68 4.60133 68.14 3.948 68.14C3.49067 68.14 3.07533 68.0653 2.702 67.916C2.32867 67.7573 2.00667 67.5193 1.736 67.202C1.46533 66.8847 1.25533 66.488 1.106 66.012C0.956667 65.5267 0.882 64.9527 0.882 64.29C0.882 63.5807 0.956667 62.9693 1.106 62.456C1.26467 61.9427 1.47933 61.5227 1.75 61.196C2.03 60.86 2.352 60.6173 2.716 60.468C3.08933 60.3093 3.486 60.23 3.906 60.23C4.37267 60.23 4.77867 60.3093 5.124 60.468C5.47867 60.6173 5.77267 60.8647 6.006 61.21C6.23933 61.546 6.412 61.98 6.524 62.512C6.64533 63.044 6.706 63.688 6.706 64.444H2.03C2.03933 64.976 2.09533 65.424 2.198 65.788C2.31 66.1427 2.45467 66.4273 2.632 66.642C2.80933 66.8567 3.01467 67.0107 3.248 67.104C3.49067 67.1973 3.74733 67.244 4.018 67.244C4.242 67.244 4.44267 67.2113 4.62 67.146C4.80667 67.0713 4.97 66.9827 5.11 66.88C5.25 66.7773 5.37133 66.6653 5.474 66.544C5.57667 66.4133 5.66067 66.292 5.726 66.18L6.608 66.726ZM3.906 61.098C3.38333 61.098 2.96333 61.294 2.646 61.686C2.32867 62.078 2.13267 62.6987 2.058 63.548H5.544C5.52533 63.0907 5.474 62.708 5.39 62.4C5.31533 62.0827 5.208 61.8307 5.068 61.644C4.928 61.448 4.76 61.308 4.564 61.224C4.37733 61.14 4.158 61.098 3.906 61.098ZM13.9202 60.44L11.5682 68H10.0142L7.69016 60.44H8.89416L10.8122 67.104L12.7722 60.44H13.9202ZM20.6282 66.726C20.3856 67.1087 20.0449 67.44 19.6062 67.72C19.1676 68 18.6216 68.14 17.9682 68.14C17.5109 68.14 17.0956 68.0653 16.7222 67.916C16.3489 67.7573 16.0269 67.5193 15.7562 67.202C15.4856 66.8847 15.2756 66.488 15.1262 66.012C14.9769 65.5267 14.9022 64.9527 14.9022 64.29C14.9022 63.5807 14.9769 62.9693 15.1262 62.456C15.2849 61.9427 15.4996 61.5227 15.7702 61.196C16.0502 60.86 16.3722 60.6173 16.7362 60.468C17.1096 60.3093 17.5062 60.23 17.9262 60.23C18.3929 60.23 18.7989 60.3093 19.1442 60.468C19.4989 60.6173 19.7929 60.8647 20.0262 61.21C20.2596 61.546 20.4322 61.98 20.5442 62.512C20.6656 63.044 20.7262 63.688 20.7262 64.444H16.0502C16.0596 64.976 16.1156 65.424 16.2182 65.788C16.3302 66.1427 16.4749 66.4273 16.6522 66.642C16.8296 66.8567 17.0349 67.0107 17.2682 67.104C17.5109 67.1973 17.7676 67.244 18.0382 67.244C18.2622 67.244 18.4629 67.2113 18.6402 67.146C18.8269 67.0713 18.9902 66.9827 19.1302 66.88C19.2702 66.7773 19.3916 66.6653 19.4942 66.544C19.5969 66.4133 19.6809 66.292 19.7462 66.18L20.6282 66.726ZM17.9262 61.098C17.4036 61.098 16.9836 61.294 16.6662 61.686C16.3489 62.078 16.1529 62.6987 16.0782 63.548H19.5642C19.5456 63.0907 19.4942 62.708 19.4102 62.4C19.3356 62.0827 19.2282 61.8307 19.0882 61.644C18.9482 61.448 18.7802 61.308 18.5842 61.224C18.3976 61.14 18.1782 61.098 17.9262 61.098ZM22.7588 68V60.44H23.7808L23.8228 61.504C24.0094 61.084 24.2474 60.7713 24.5368 60.566C24.8261 60.3607 25.1481 60.258 25.5028 60.258C25.6334 60.258 25.7454 60.2627 25.8388 60.272C25.9321 60.2813 26.0441 60.3093 26.1748 60.356L25.8948 61.406C25.8108 61.3873 25.7221 61.3733 25.6288 61.364C25.5448 61.3453 25.4468 61.336 25.3348 61.336C25.1481 61.336 24.9801 61.378 24.8308 61.462C24.6908 61.5367 24.5601 61.644 24.4388 61.784C24.3268 61.924 24.2241 62.0873 24.1308 62.274C24.0374 62.4513 23.9534 62.638 23.8788 62.834V68H22.7588ZM30.5572 68.042C30.4452 68.4527 30.3285 68.8167 30.2072 69.134C30.0952 69.4513 29.9599 69.7173 29.8012 69.932C29.6425 70.1467 29.4512 70.31 29.2272 70.422C29.0032 70.5433 28.7279 70.604 28.4012 70.604C28.1865 70.604 27.9719 70.5713 27.7572 70.506C27.5519 70.4407 27.3839 70.3613 27.2532 70.268L27.6452 69.526C27.9065 69.666 28.1492 69.736 28.3732 69.736C28.5225 69.736 28.6485 69.708 28.7512 69.652C28.8632 69.596 28.9612 69.498 29.0452 69.358C29.1292 69.2273 29.2039 69.05 29.2692 68.826C29.3439 68.602 29.4232 68.3267 29.5072 68H29.0172L26.5672 60.44H27.7432L29.7872 67.188L31.6212 60.44H32.6992L30.5572 68.042ZM33.6836 64.234C33.6836 62.9087 33.9262 61.91 34.4116 61.238C34.9062 60.566 35.5922 60.23 36.4696 60.23C37.1322 60.23 37.6502 60.4213 38.0236 60.804V57.71H39.1436V68H38.1636L38.1076 67.048C37.8649 67.3933 37.5756 67.664 37.2396 67.86C36.9036 68.0467 36.5256 68.14 36.1056 68.14C35.7696 68.14 35.4522 68.07 35.1536 67.93C34.8549 67.79 34.5982 67.566 34.3836 67.258C34.1689 66.9407 33.9962 66.5347 33.8656 66.04C33.7442 65.5453 33.6836 64.9433 33.6836 64.234ZM36.3716 67.216C36.6982 67.216 36.9922 67.132 37.2536 66.964C37.5242 66.796 37.7809 66.5533 38.0236 66.236V61.7C37.8089 61.476 37.5849 61.3173 37.3516 61.224C37.1276 61.1213 36.9082 61.07 36.6936 61.07C36.4229 61.07 36.1756 61.126 35.9516 61.238C35.7276 61.35 35.5316 61.532 35.3636 61.784C35.2049 62.036 35.0789 62.3673 34.9856 62.778C34.9016 63.1887 34.8596 63.6973 34.8596 64.304C34.8596 64.864 34.8969 65.3307 34.9716 65.704C35.0462 66.0773 35.1489 66.376 35.2796 66.6C35.4102 66.824 35.5689 66.9827 35.7556 67.076C35.9422 67.1693 36.1476 67.216 36.3716 67.216ZM45.4044 68L45.3484 67.16C45.1431 67.44 44.8724 67.6733 44.5364 67.86C44.2097 68.0467 43.7897 68.14 43.2764 68.14C43.0057 68.14 42.7304 68.098 42.4504 68.014C42.1797 67.9393 41.9324 67.818 41.7084 67.65C41.4937 67.4727 41.3164 67.2487 41.1764 66.978C41.0364 66.7073 40.9664 66.376 40.9664 65.984C40.9664 65.1627 41.3024 64.514 41.9744 64.038C42.6557 63.562 43.7477 63.31 45.2504 63.282V62.652C45.2504 62.204 45.1384 61.8353 44.9144 61.546C44.6997 61.2473 44.3311 61.098 43.8084 61.098C43.4071 61.098 43.0711 61.2007 42.8004 61.406C42.5391 61.602 42.3384 61.8913 42.1984 62.274L41.1764 61.882C41.4004 61.378 41.7364 60.9767 42.1844 60.678C42.6324 60.3793 43.1831 60.23 43.8364 60.23C44.2657 60.23 44.6391 60.2907 44.9564 60.412C45.2737 60.524 45.5351 60.6827 45.7404 60.888C45.9551 61.084 46.1137 61.322 46.2164 61.602C46.3191 61.8727 46.3704 62.1667 46.3704 62.484V68H45.4044ZM43.5844 67.244C43.9391 67.244 44.2517 67.1647 44.5224 67.006C44.7931 66.8473 45.0357 66.6467 45.2504 66.404V64.164C44.1771 64.1827 43.3884 64.3367 42.8844 64.626C42.3804 64.906 42.1284 65.3307 42.1284 65.9C42.1284 66.376 42.2684 66.7213 42.5484 66.936C42.8377 67.1413 43.1831 67.244 43.5844 67.244ZM51.6491 68.042C51.5371 68.4527 51.4204 68.8167 51.2991 69.134C51.1871 69.4513 51.0517 69.7173 50.8931 69.932C50.7344 70.1467 50.5431 70.31 50.3191 70.422C50.0951 70.5433 49.8197 70.604 49.4931 70.604C49.2784 70.604 49.0637 70.5713 48.8491 70.506C48.6437 70.4407 48.4757 70.3613 48.3451 70.268L48.7371 69.526C48.9984 69.666 49.2411 69.736 49.4651 69.736C49.6144 69.736 49.7404 69.708 49.8431 69.652C49.9551 69.596 50.0531 69.498 50.1371 69.358C50.2211 69.2273 50.2957 69.05 50.3611 68.826C50.4357 68.602 50.5151 68.3267 50.5991 68H50.1091L47.6591 60.44H48.8351L50.8791 67.188L52.7131 60.44H53.7911L51.6491 68.042ZM62.8744 67.86C62.5198 68.0093 62.1231 68.084 61.6844 68.084C61.0684 68.084 60.6018 67.916 60.2844 67.58C59.9671 67.244 59.8084 66.782 59.8084 66.194V61.35H58.6184L58.7584 60.44H59.8224L59.8924 58.62H60.9284V60.44H62.5524V61.35H60.9284V66.138C60.9284 66.5113 61.0124 66.7727 61.1804 66.922C61.3484 67.0713 61.5771 67.146 61.8664 67.146C62.0064 67.146 62.1231 67.1367 62.2164 67.118C62.3191 67.09 62.4451 67.0527 62.5944 67.006L62.8744 67.86ZM64.0379 64.22C64.0379 63.4453 64.1265 62.8013 64.3039 62.288C64.4905 61.7747 64.7285 61.3687 65.0179 61.07C65.3165 60.762 65.6479 60.5473 66.0119 60.426C66.3852 60.2953 66.7539 60.23 67.1179 60.23C67.4725 60.23 67.8319 60.2907 68.1959 60.412C68.5599 60.5333 68.8865 60.748 69.1759 61.056C69.4745 61.3547 69.7172 61.7607 69.9039 62.274C70.0905 62.7873 70.1839 63.436 70.1839 64.22C70.1839 65.004 70.0905 65.648 69.9039 66.152C69.7265 66.656 69.4932 67.0573 69.2039 67.356C68.9145 67.6453 68.5832 67.8507 68.2099 67.972C67.8459 68.084 67.4819 68.14 67.1179 68.14C66.7632 68.14 66.3992 68.084 66.0259 67.972C65.6619 67.8507 65.3305 67.6407 65.0319 67.342C64.7425 67.0433 64.5045 66.642 64.3179 66.138C64.1312 65.634 64.0379 64.9947 64.0379 64.22ZM65.2139 64.22C65.2139 65.284 65.3865 66.0587 65.7319 66.544C66.0865 67.0293 66.5532 67.272 67.1319 67.272C67.7105 67.272 68.1679 67.034 68.5039 66.558C68.8492 66.082 69.0219 65.3027 69.0219 64.22C69.0219 63.6787 68.9752 63.212 68.8819 62.82C68.7885 62.428 68.6579 62.106 68.4899 61.854C68.3219 61.5927 68.1212 61.4013 67.8879 61.28C67.6545 61.1587 67.3979 61.098 67.1179 61.098C66.5672 61.098 66.1099 61.3547 65.7459 61.868C65.3912 62.372 65.2139 63.156 65.2139 64.22ZM72.0939 64.22C72.0939 63.4453 72.1825 62.8013 72.3599 62.288C72.5465 61.7747 72.7845 61.3687 73.0739 61.07C73.3725 60.762 73.7039 60.5473 74.0679 60.426C74.4412 60.2953 74.8099 60.23 75.1739 60.23C75.5285 60.23 75.8879 60.2907 76.2519 60.412C76.6159 60.5333 76.9425 60.748 77.2319 61.056C77.5305 61.3547 77.7732 61.7607 77.9599 62.274C78.1465 62.7873 78.2399 63.436 78.2399 64.22C78.2399 65.004 78.1465 65.648 77.9599 66.152C77.7825 66.656 77.5492 67.0573 77.2599 67.356C76.9705 67.6453 76.6392 67.8507 76.2659 67.972C75.9019 68.084 75.5379 68.14 75.1739 68.14C74.8192 68.14 74.4552 68.084 74.0819 67.972C73.7179 67.8507 73.3865 67.6407 73.0879 67.342C72.7985 67.0433 72.5605 66.642 72.3739 66.138C72.1872 65.634 72.0939 64.9947 72.0939 64.22ZM73.2699 64.22C73.2699 65.284 73.4425 66.0587 73.7879 66.544C74.1425 67.0293 74.6092 67.272 75.1879 67.272C75.7665 67.272 76.2239 67.034 76.5599 66.558C76.9052 66.082 77.0779 65.3027 77.0779 64.22C77.0779 63.6787 77.0312 63.212 76.9379 62.82C76.8445 62.428 76.7139 62.106 76.5459 61.854C76.3779 61.5927 76.1772 61.4013 75.9439 61.28C75.7105 61.1587 75.4539 61.098 75.1739 61.098C74.6232 61.098 74.1659 61.3547 73.8019 61.868C73.4472 62.372 73.2699 63.156 73.2699 64.22ZM80.5139 58.62H79.4779L79.6179 57.71H81.6339V68H80.5139V58.62ZM91.5435 58.816C91.2448 58.62 90.9322 58.522 90.6055 58.522C90.2602 58.522 90.0175 58.62 89.8775 58.816C89.7468 59.0027 89.6815 59.2593 89.6815 59.586V60.44H91.4315V61.35H89.6815V68H88.5615V61.35H87.3715L87.5115 60.44H88.5615V59.558C88.5615 58.9887 88.7248 58.522 89.0515 58.158C89.3875 57.7847 89.9055 57.598 90.6055 57.598C90.8762 57.598 91.1375 57.6447 91.3895 57.738C91.6508 57.822 91.8795 57.9293 92.0755 58.06L91.5435 58.816ZM92.6148 64.22C92.6148 63.4453 92.7035 62.8013 92.8808 62.288C93.0675 61.7747 93.3055 61.3687 93.5948 61.07C93.8935 60.762 94.2248 60.5473 94.5888 60.426C94.9621 60.2953 95.3308 60.23 95.6948 60.23C96.0495 60.23 96.4088 60.2907 96.7728 60.412C97.1368 60.5333 97.4635 60.748 97.7528 61.056C98.0515 61.3547 98.2941 61.7607 98.4808 62.274C98.6675 62.7873 98.7608 63.436 98.7608 64.22C98.7608 65.004 98.6675 65.648 98.4808 66.152C98.3035 66.656 98.0701 67.0573 97.7808 67.356C97.4915 67.6453 97.1601 67.8507 96.7868 67.972C96.4228 68.084 96.0588 68.14 95.6948 68.14C95.3401 68.14 94.9761 68.084 94.6028 67.972C94.2388 67.8507 93.9075 67.6407 93.6088 67.342C93.3195 67.0433 93.0815 66.642 92.8948 66.138C92.7081 65.634 92.6148 64.9947 92.6148 64.22ZM93.7908 64.22C93.7908 65.284 93.9635 66.0587 94.3088 66.544C94.6635 67.0293 95.1301 67.272 95.7088 67.272C96.2875 67.272 96.7448 67.034 97.0808 66.558C97.4261 66.082 97.5988 65.3027 97.5988 64.22C97.5988 63.6787 97.5521 63.212 97.4588 62.82C97.3655 62.428 97.2348 62.106 97.0668 61.854C96.8988 61.5927 96.6981 61.4013 96.4648 61.28C96.2315 61.1587 95.9748 61.098 95.6948 61.098C95.1441 61.098 94.6868 61.3547 94.3228 61.868C93.9681 62.372 93.7908 63.156 93.7908 64.22ZM100.909 68V60.44H101.931L101.973 61.504C102.159 61.084 102.397 60.7713 102.687 60.566C102.976 60.3607 103.298 60.258 103.653 60.258C103.783 60.258 103.895 60.2627 103.989 60.272C104.082 60.2813 104.194 60.3093 104.325 60.356L104.045 61.406C103.961 61.3873 103.872 61.3733 103.779 61.364C103.695 61.3453 103.597 61.336 103.485 61.336C103.298 61.336 103.13 61.378 102.981 61.462C102.841 61.5367 102.71 61.644 102.589 61.784C102.477 61.924 102.374 62.0873 102.281 62.274C102.187 62.4513 102.103 62.638 102.029 62.834V68H100.909ZM110.161 58.62H109.125L109.265 57.71H111.281V68H110.161V58.62ZM113.577 59.068V57.71H114.865V59.068H113.577ZM113.661 68V60.44H114.781V68H113.661ZM120.356 58.816C120.057 58.62 119.745 58.522 119.418 58.522C119.073 58.522 118.83 58.62 118.69 58.816C118.559 59.0027 118.494 59.2593 118.494 59.586V60.44H120.244V61.35H118.494V68H117.374V61.35H116.184L116.324 60.44H117.374V59.558C117.374 58.9887 117.537 58.522 117.864 58.158C118.2 57.7847 118.718 57.598 119.418 57.598C119.689 57.598 119.95 57.6447 120.202 57.738C120.463 57.822 120.692 57.9293 120.888 58.06L120.356 58.816ZM127.153 66.726C126.911 67.1087 126.57 67.44 126.131 67.72C125.693 68 125.147 68.14 124.493 68.14C124.036 68.14 123.621 68.0653 123.247 67.916C122.874 67.7573 122.552 67.5193 122.281 67.202C122.011 66.8847 121.801 66.488 121.651 66.012C121.502 65.5267 121.427 64.9527 121.427 64.29C121.427 63.5807 121.502 62.9693 121.651 62.456C121.81 61.9427 122.025 61.5227 122.295 61.196C122.575 60.86 122.897 60.6173 123.261 60.468C123.635 60.3093 124.031 60.23 124.451 60.23C124.918 60.23 125.324 60.3093 125.669 60.468C126.024 60.6173 126.318 60.8647 126.551 61.21C126.785 61.546 126.957 61.98 127.069 62.512C127.191 63.044 127.251 63.688 127.251 64.444H122.575C122.585 64.976 122.641 65.424 122.743 65.788C122.855 66.1427 123 66.4273 123.177 66.642C123.355 66.8567 123.56 67.0107 123.793 67.104C124.036 67.1973 124.293 67.244 124.563 67.244C124.787 67.244 124.988 67.2113 125.165 67.146C125.352 67.0713 125.515 66.9827 125.655 66.88C125.795 66.7773 125.917 66.6653 126.019 66.544C126.122 66.4133 126.206 66.292 126.271 66.18L127.153 66.726ZM124.451 61.098C123.929 61.098 123.509 61.294 123.191 61.686C122.874 62.078 122.678 62.6987 122.603 63.548H126.089C126.071 63.0907 126.019 62.708 125.935 62.4C125.861 62.0827 125.753 61.8307 125.613 61.644C125.473 61.448 125.305 61.308 125.109 61.224C124.923 61.14 124.703 61.098 124.451 61.098Z" fill="#404040"/>
<path d="M24.7927 11.3236C22.4151 10.3436 18.5896 9.71958 15.1094 9.71958C12.9767 9.71958 11.6666 6.55658 11.3014 4.48458L12.6804 2.47758C12.9896 2.02761 13.4304 1.6546 13.9594 1.39546C14.4883 1.13631 15.087 1 15.6962 1C16.3055 1 16.9042 1.13631 17.4331 1.39546C17.962 1.6546 18.4029 2.02761 18.7121 2.47758L24.7927 11.3236V11.3236ZM26.7446 14.1626L26.9079 14.3986C27.2212 14.8543 27.3883 15.373 27.3924 15.9019C27.3964 16.4309 27.2372 16.9514 26.9309 17.4106C26.6246 17.8698 26.182 18.2515 25.6482 18.5168C25.1143 18.7822 24.508 18.9218 23.8909 18.9216H7.5004C6.88335 18.9216 6.27725 18.7819 5.74354 18.5164C5.20982 18.251 4.76745 17.8694 4.46127 17.4102C4.15509 16.951 3.99599 16.4306 4.00008 15.9017C4.00417 15.3728 4.17131 14.8542 4.48456 14.3986L9.7544 6.73458C10.2409 9.49458 12.2557 11.7196 15.1094 11.7196C18.3142 11.7196 22.9377 12.2556 26.7446 14.1626V14.1626Z" fill="#404040"/>
<path d="M128.889 26.5409C122.427 30.9088 122.889 39.8804 118.362 43.9287C114.954 46.9757 110.146 45.4326 107.366 44.1218C107.366 44.1218 105.482 46.8612 104.131 50.513C103.679 51.7383 101.692 50.3883 102.041 49.351C106.459 36.2183 121.489 29.6664 121.489 29.6664C121.489 29.6664 110.884 29.1487 103.796 39.8172C103.606 37.3803 103.291 30.7875 108.78 26.7443C116.221 21.2571 130.397 25.5224 128.889 26.5409V26.5409Z" fill="#404040"/>
</svg>
