<svg width="8" height="12" viewBox="0 0 8 12" fill="none" xmlns="http://www.w3.org/2000/svg">
<path fill-rule="evenodd" clip-rule="evenodd" d="M4.13096 6.56515C2.9716 7.49263 1.55202 8.90484 0.597901 10.8131L2.07812 11.5532C2.88927 9.93088 4.11757 8.69519 5.16478 7.85744C5.68545 7.44091 6.15328 7.1292 6.48822 6.92309C6.65546 6.82018 6.78888 6.74401 6.87835 6.69465C6.92307 6.66998 6.95674 6.65205 6.97809 6.64085L7.0007 6.62911L7.00422 6.62731C7.0042 6.62732 7.00418 6.62733 7.00382 6.62666L7.00384 5.14813C7.0042 5.14746 7.00422 5.14747 7.00423 5.14748L7.00071 5.14568L6.97811 5.13395C6.95675 5.12275 6.92308 5.10481 6.87837 5.08014C6.7889 5.03077 6.65547 4.95461 6.48824 4.85169C6.15329 4.64557 5.68546 4.33384 5.16479 3.9173C4.11758 3.07952 2.88927 1.84381 2.07812 0.221466L0.5979 0.961555C1.55201 2.86984 2.97159 4.28207 4.13095 5.20957C4.4593 5.47226 4.76939 5.69814 5.04593 5.88738C4.76939 6.0766 4.45931 6.30248 4.13096 6.56515ZM7.00492 6.62696C7.00507 6.62688 7.00502 6.62691 7.00475 6.62704L7.00492 6.62696Z" fill="black"/>
</svg>
