<svg width="24" height="26" viewBox="0 0 24 26" fill="none" xmlns="http://www.w3.org/2000/svg">
<path d="M14.4255 0.75C14.6108 0.750006 14.7912 0.808807 14.9409 0.917934C15.0906 1.02706 15.2018 1.18089 15.2585 1.35725L16.221 4.348C16.6253 4.54575 17.012 4.768 17.3813 5.01825L20.4543 4.35675C20.6354 4.31807 20.8242 4.33789 20.9934 4.41337C21.1626 4.48885 21.3035 4.61608 21.3958 4.77675L23.8213 8.975C23.9139 9.13557 23.9531 9.32141 23.9333 9.50572C23.9135 9.69003 23.8356 9.86328 23.711 10.0005L21.6023 12.328C21.633 12.7743 21.633 13.2222 21.6023 13.6685L23.711 15.9995C23.8356 16.1367 23.9135 16.31 23.9333 16.4943C23.9531 16.6786 23.9139 16.8644 23.8213 17.025L21.3958 21.225C21.3032 21.3853 21.1623 21.5122 20.9931 21.5874C20.8239 21.6625 20.6353 21.6821 20.4543 21.6432L17.3813 20.9818C17.0138 21.2302 16.6253 21.4543 16.2228 21.652L15.2585 24.6427C15.2018 24.8191 15.0906 24.9729 14.9409 25.0821C14.7912 25.1912 14.6108 25.25 14.4255 25.25H9.57451C9.38925 25.25 9.20879 25.1912 9.05909 25.0821C8.90939 24.9729 8.79819 24.8191 8.74151 24.6427L7.78076 21.6537C7.37759 21.4566 6.98872 21.2315 6.61701 20.98L3.54576 21.6432C3.36457 21.6819 3.17578 21.6621 3.00658 21.5866C2.83739 21.5112 2.69651 21.3839 2.60426 21.2233L0.178756 17.025C0.0861368 16.8644 0.046906 16.6786 0.0667207 16.4943C0.0865354 16.31 0.164372 16.1367 0.289006 15.9995L2.39776 13.6685C2.36721 13.2234 2.36721 12.7766 2.39776 12.3315L0.289006 10.0005C0.164372 9.86328 0.0865354 9.69003 0.0667207 9.50572C0.046906 9.32141 0.0861368 9.13557 0.178756 8.975L2.60426 4.775C2.69677 4.61465 2.83775 4.48778 3.00693 4.41263C3.1761 4.33747 3.36476 4.31791 3.54576 4.35675L6.61701 5.02C6.98801 4.76975 7.37651 4.544 7.78076 4.34625L8.74326 1.35725C8.79976 1.18145 8.91043 1.02804 9.05942 0.918962C9.20842 0.809887 9.3881 0.750745 9.57276 0.75H14.4238H14.4255ZM13.785 2.5H10.215L9.22101 5.59225L8.55076 5.9195C8.22126 6.08074 7.90319 6.26434 7.59876 6.469L6.97926 6.889L3.80126 6.203L2.01626 9.297L4.19501 11.7085L4.14251 12.4505C4.11736 12.8164 4.11736 13.1836 4.14251 13.5495L4.19501 14.2915L2.01276 16.703L3.79951 19.797L6.97751 19.1128L7.59701 19.531C7.90144 19.7357 8.21951 19.9193 8.54901 20.0805L9.21926 20.4077L10.215 23.5H13.7885L14.786 20.406L15.4545 20.0805C15.7836 19.9196 16.1012 19.736 16.4048 19.531L17.0225 19.1128L20.2023 19.797L21.9873 16.703L19.8068 14.2915L19.8593 13.5495C19.8845 13.183 19.8845 12.8152 19.8593 12.4487L19.8068 11.7067L21.989 9.297L20.2023 6.203L17.0225 6.8855L16.4048 6.469C16.1012 6.26393 15.7837 6.08031 15.4545 5.9195L14.786 5.594L13.7868 2.5H13.785ZM12 7.75C13.3924 7.75 14.7278 8.30312 15.7123 9.28769C16.6969 10.2723 17.25 11.6076 17.25 13C17.25 14.3924 16.6969 15.7277 15.7123 16.7123C14.7278 17.6969 13.3924 18.25 12 18.25C10.6076 18.25 9.27226 17.6969 8.2877 16.7123C7.30313 15.7277 6.75001 14.3924 6.75001 13C6.75001 11.6076 7.30313 10.2723 8.2877 9.28769C9.27226 8.30312 10.6076 7.75 12 7.75ZM12 9.5C11.0717 9.5 10.1815 9.86875 9.52513 10.5251C8.86876 11.1815 8.50001 12.0717 8.50001 13C8.50001 13.9283 8.86876 14.8185 9.52513 15.4749C10.1815 16.1313 11.0717 16.5 12 16.5C12.9283 16.5 13.8185 16.1313 14.4749 15.4749C15.1313 14.8185 15.5 13.9283 15.5 13C15.5 12.0717 15.1313 11.1815 14.4749 10.5251C13.8185 9.86875 12.9283 9.5 12 9.5Z" fill="#7D7D7D"/>
</svg>
